<svg xmlns="http://www.w3.org/2000/svg" width="150" height="150" viewBox="0 0 150 150" version="1.1">
    <title>Alter Housing Logo</title>
    <desc>Created by Haroen Viaene</desc>
    <g stroke="none" stroke-width="1" fill="none" fill-rule="evenodd">
        <path d="M21.7 148L5.4 148 21.7 109.6 14.8 109.6 14.8 125.7 5.4 148 5.4 2 14.8 2 14.8 96.2 26.4 96.2 68.5 2 82.9 2 123.1 96.2 134.4 96.2 134.2 2 145.6 2 145.6 148 134.4 121.8 134.4 109.6 129.1 109.6 145.6 148 129.1 148 113 109.6 37.5 109.6 21.7 148ZM43.1 96L107.4 96 75.3 18.5 43.1 96Z" fill="#000000" />
    </g>
</svg>
