<svg xmlns="http://www.w3.org/2000/svg" version="1.1" style="display: none;">
	<symbol viewbox="0 0 46 40" id="airport">
		<path fill="none" stroke="#000000" d="M28 15.6L35.9 7C35.9 7 38.2 3.3 36.8 1.6 35.4 0 31.3 2.2 31.3 2.2L23.2 9.9 3.8 4.1 1.5 6.7 17.6 15.2 8.4 26.1 2.9 24.8 1.5 26.2 8 29.8 11.1 36.3 13.4 34.6 12 29 22.4 19.8 31.6 36.2 34.3 33.9 28 15.6 28 15.6Z"/>
	</symbol>

	<symbol viewbox="0 0 46 40" id="cleaning">
		<path fill="none" stroke="#000000" d="M24.2 20.4L18.6 21.5 3.1 37.7 0.2 35.3 16.4 19 16.9 12.6 24.2 20.4 27 18.6 36 18.6M22.5 18.9L26 17.1 36.5 15.2M21.7 17.8L25 15.8 35 11.9M21.3 16.7L24.9 14.3 34.7 8.4M32.2 5.4L20.4 16.6M20 15.7L23.5 11.6 29.4 2.5M19.7 15.4L22.2 11 25.6 1.1M18.8 14.4L20.8 10.7 22.3 0.7M19.4 1L19 10.3 17 12.2M18.9 10.2L20.9 10.6 22.2 11.1 23.3 11.7 24.1 12.9 25 14.5 25.4 15.9 26.1 16.9 26.8 18.4"/>
	</symbol>
	<symbol viewbox="0 0 46 40"id="wifi">
		<path fill="none" stroke="#000000" d="M0.9 7.6C0.9 7.6 7.3 0.8 18.8 0.8 30.4 0.8 36.7 7.6 36.7 7.6M6.7 13.6C6.7 13.6 12.1 8.8 18.8 8.8 26.3 8.8 31 13.6 31 13.6M12.7 18.4C12.7 18.4 15.1 15.8 18.9 15.8 22.7 15.8 25.2 18.4 25.2 18.4"/>
		<circle fill="none" stroke="#000000" cx="19" cy="26" r="3"/>
	</symbol>
	<symbol viewbox="0 0 46 40"  id="parking">
		<text font-family="Helvetica" font-size="24" font-weight="260" fill="#000000">
			<tspan x="11" y="27">
				P
			</tspan>
		</text>
		<circle fill="none" stroke="#000000" cx="17.5" cy="17.5" r="17.5"/>
	</symbol>
	<symbol viewbox="0 0 46 40" id="furnished">
		<path fill="none" stroke="#000000"  d="M0.3 21L4.5 0.4 23.4 0.4 26.9 21 0.3 21ZM7.1 26.6L7.1 20.9 13.4 20.9 13.4 37 6.5 37 20.6 37"/>
	</symbol>
</svg>
