<svg xmlns="http://www.w3.org/2000/svg" version="1.1" style="display: none;">
	<symbol viewBox="0 0 110 18" id="1">
		<path fill="#00000" d="M12.078125,4.01953125 C12.6796905,4.59375287 13.0136715,5.2460901 13.0800781,5.9765625 L11.9433594,5.9765625 C11.8144525,5.42187223 11.5576191,4.9824235 11.1728516,4.65820312 C10.788084,4.33398275 10.2480504,4.171875 9.55273438,4.171875 C8.70507389,4.171875 8.02051042,4.46972358 7.49902344,5.06542969 C6.97753646,5.66113579 6.71679688,6.5742126 6.71679688,7.8046875 C6.71679688,8.81250504 6.95214608,9.62987968 7.42285156,10.2568359 C7.89355704,10.8837922 8.59569846,11.1972656 9.52929688,11.1972656 C10.3886762,11.1972656 11.0429665,10.8671908 11.4921875,10.2070312 C11.7304699,9.85937326 11.9082025,9.40234658 12.0253906,8.8359375 L13.1621094,8.8359375 C13.0605464,9.74219203 12.7246122,10.5019501 12.1542969,11.1152344 C11.4706997,11.8535193 10.5488339,12.2226562 9.38867188,12.2226562 C8.38866688,12.2226562 7.54883152,11.9199249 6.86914062,11.3144531 C5.9746049,10.5136679 5.52734375,9.27735211 5.52734375,7.60546875 C5.52734375,6.33593115 5.86327789,5.29492594 6.53515625,4.48242188 C7.26172238,3.59960496 8.26366549,3.15820312 9.54101562,3.15820312 C10.6308648,3.15820312 11.4765595,3.44530963 12.078125,4.01953125 L12.078125,4.01953125 Z M18.3681641,10.5263672 C18.627931,9.99706767 18.7578125,9.40820637 18.7578125,8.75976562 C18.7578125,8.1738252 18.6640634,7.69726746 18.4765625,7.33007812 C18.179686,6.75195023 17.6679724,6.46289062 16.9414062,6.46289062 C16.2968718,6.46289062 15.8281265,6.70898191 15.5351562,7.20117188 C15.242186,7.69336184 15.0957031,8.2871059 15.0957031,8.98242188 C15.0957031,9.65039396 15.242186,10.207029 15.5351562,10.6523438 C15.8281265,11.0976585 16.2929656,11.3203125 16.9296875,11.3203125 C17.6289097,11.3203125 18.1083971,11.0556667 18.3681641,10.5263672 L18.3681641,10.5263672 Z M19.0214844,6.3515625 C19.5800809,6.8906277 19.859375,7.68358852 19.859375,8.73046875 C19.859375,9.74219256 19.6132837,10.5781217 19.1210938,11.2382812 C18.6289038,11.8984408 17.8652396,12.2285156 16.8300781,12.2285156 C15.9667926,12.2285156 15.2812525,11.9365264 14.7734375,11.3525391 C14.2656225,10.7685518 14.0117188,9.98437992 14.0117188,9 C14.0117188,7.94530723 14.2792942,7.10547187 14.8144531,6.48046875 C15.3496121,5.85546563 16.0683549,5.54296875 16.9707031,5.54296875 C17.7793009,5.54296875 18.4628878,5.8124973 19.0214844,6.3515625 L19.0214844,6.3515625 Z M21.1132812,5.72460938 L22.15625,5.72460938 L22.15625,6.61523438 C22.4062513,6.30663908 22.6328115,6.08203195 22.8359375,5.94140625 C23.1835955,5.70312381 23.5781228,5.58398438 24.0195312,5.58398438 C24.5195338,5.58398438 24.9218735,5.70703002 25.2265625,5.953125 C25.3984384,6.0937507 25.5546868,6.30077988 25.6953125,6.57421875 C25.9296887,6.23827957 26.2050765,5.98925862 26.5214844,5.82714844 C26.8378922,5.66503825 27.1933574,5.58398438 27.5878906,5.58398438 C28.4316448,5.58398438 29.0058579,5.88866883 29.3105469,6.49804688 C29.4746102,6.82617352 29.5566406,7.26757535 29.5566406,7.82226562 L29.5566406,12 L28.4609375,12 L28.4609375,7.640625 C28.4609375,7.22265416 28.3564464,6.93554766 28.1474609,6.77929688 C27.9384755,6.62304609 27.6835953,6.54492188 27.3828125,6.54492188 C26.9687479,6.54492188 26.6123062,6.68359236 26.3134766,6.9609375 C26.0146469,7.23828264 25.8652344,7.70116863 25.8652344,8.34960938 L25.8652344,12 L24.7929688,12 L24.7929688,7.90429688 C24.7929688,7.4785135 24.742188,7.16796973 24.640625,6.97265625 C24.4804679,6.67968604 24.1816428,6.53320312 23.7441406,6.53320312 C23.3457011,6.53320312 22.9834001,6.68749846 22.6572266,6.99609375 C22.3310531,7.30468904 22.1679688,7.86327721 22.1679688,8.671875 L22.1679688,12 L21.1132812,12 L21.1132812,5.72460938 Z M34.9853516,10.6728516 C35.3115251,10.2607401 35.4746094,9.64453535 35.4746094,8.82421875 C35.4746094,8.32421625 35.4023445,7.89453305 35.2578125,7.53515625 C34.9843736,6.84374654 34.4843786,6.49804688 33.7578125,6.49804688 C33.0273401,6.49804688 32.5273451,6.8632776 32.2578125,7.59375 C32.1132805,7.98437695 32.0410156,8.48046574 32.0410156,9.08203125 C32.0410156,9.56640867 32.1132805,9.97851393 32.2578125,10.3183594 C32.5312514,10.9668001 33.0312464,11.2910156 33.7578125,11.2910156 C34.2500025,11.2910156 34.6591781,11.084963 34.9853516,10.6728516 L34.9853516,10.6728516 Z M31.0273438,5.75390625 L32.0527344,5.75390625 L32.0527344,6.5859375 C32.2636729,6.30077982 32.4941394,6.08007891 32.7441406,5.92382812 C33.0996112,5.68945195 33.5175757,5.57226562 33.9980469,5.57226562 C34.7089879,5.57226562 35.3124975,5.84472384 35.8085938,6.38964844 C36.30469,6.93457304 36.5527344,7.71288557 36.5527344,8.72460938 C36.5527344,10.0918037 36.1953161,11.0683564 35.4804688,11.6542969 C35.0273415,12.0253925 34.500003,12.2109375 33.8984375,12.2109375 C33.4257789,12.2109375 33.0292985,12.1074229 32.7089844,11.9003906 C32.5214834,11.7832025 32.3125012,11.5820327 32.0820312,11.296875 L32.0820312,14.5019531 L31.0273438,14.5019531 L31.0273438,5.75390625 Z M38.9257812,11.0507812 C39.1484386,11.2265634 39.4121079,11.3144531 39.7167969,11.3144531 C40.0878925,11.3144531 40.4472639,11.2285165 40.7949219,11.0566406 C41.3808623,10.7714829 41.6738281,10.3046907 41.6738281,9.65625 L41.6738281,8.80664062 C41.5449212,8.88867229 41.3789073,8.95703098 41.1757812,9.01171875 C40.9726552,9.06640652 40.7734385,9.10546863 40.578125,9.12890625 L39.9394531,9.2109375 C39.5566387,9.261719 39.2695322,9.34179633 39.078125,9.45117188 C38.7539046,9.63476654 38.5917969,9.92773236 38.5917969,10.3300781 C38.5917969,10.6347671 38.7031239,10.8749991 38.9257812,11.0507812 L38.9257812,11.0507812 Z M41.1464844,8.19726562 C41.3886731,8.16601547 41.5507808,8.06445398 41.6328125,7.89257812 C41.6796877,7.79882766 41.703125,7.66406338 41.703125,7.48828125 C41.703125,7.12890445 41.5751966,6.86816487 41.3193359,6.70605469 C41.0634753,6.5439445 40.697268,6.46289062 40.2207031,6.46289062 C39.6699191,6.46289062 39.279298,6.61132664 39.0488281,6.90820312 C38.9199212,7.07226645 38.8359377,7.31640463 38.796875,7.640625 L37.8125,7.640625 C37.8320313,6.86718363 38.0830054,6.32910308 38.5654297,6.02636719 C39.047854,5.7236313 39.6074187,5.57226562 40.2441406,5.57226562 C40.9824256,5.57226562 41.5820289,5.71288922 42.0429688,5.99414062 C42.5000023,6.27539203 42.7285156,6.71288766 42.7285156,7.30664062 L42.7285156,10.921875 C42.7285156,11.0312505 42.7509763,11.1191403 42.7958984,11.1855469 C42.8408205,11.2519535 42.9355462,11.2851562 43.0800781,11.2851562 C43.1269534,11.2851562 43.1796872,11.2822266 43.2382812,11.2763672 C43.2968753,11.2705078 43.3593747,11.2617188 43.4257812,11.25 L43.4257812,12.0292969 C43.2617179,12.0761721 43.1367192,12.1054687 43.0507812,12.1171875 C42.9648433,12.1289063 42.847657,12.1347656 42.6992188,12.1347656 C42.3359357,12.1347656 42.0722664,12.0058607 41.9082031,11.7480469 C41.8222652,11.6113274 41.7617189,11.41797 41.7265625,11.1679688 C41.5117177,11.4492202 41.203127,11.6933583 40.8007812,11.9003906 C40.3984355,12.1074229 39.9550805,12.2109375 39.4707031,12.2109375 C38.888669,12.2109375 38.4130878,12.0341815 38.0439453,11.6806641 C37.6748028,11.3271467 37.4902344,10.8847683 37.4902344,10.3535156 C37.4902344,9.77148146 37.6718732,9.3203141 38.0351562,9 C38.3984393,8.6796859 38.8749971,8.48242225 39.4648438,8.40820312 L41.1464844,8.19726562 Z M44.4570312,5.72460938 L45.4589844,5.72460938 L45.4589844,6.61523438 C45.7558609,6.24804504 46.0703108,5.9843758 46.4023438,5.82421875 C46.7343767,5.6640617 47.1035136,5.58398438 47.5097656,5.58398438 C48.4003951,5.58398438 49.0019516,5.89452814 49.3144531,6.515625 C49.486329,6.85547045 49.5722656,7.34179371 49.5722656,7.97460938 L49.5722656,12 L48.5,12 L48.5,8.04492188 C48.5,7.66210746 48.4433599,7.3535168 48.3300781,7.11914062 C48.1425772,6.72851367 47.8027368,6.53320312 47.3105469,6.53320312 C47.0605456,6.53320312 46.8554696,6.5585935 46.6953125,6.609375 C46.4062486,6.69531293 46.1523448,6.86718621 45.9335938,7.125 C45.7578116,7.33203229 45.643555,7.54589733 45.5908203,7.76660156 C45.5380857,7.98730579 45.5117188,8.30273232 45.5117188,8.71289062 L45.5117188,12 L44.4570312,12 L44.4570312,5.72460938 Z M55.0507812,5.72460938 L56.2167969,5.72460938 C56.0683586,6.12695514 55.7382838,7.04491471 55.2265625,8.47851562 C54.8437481,9.55664602 54.5234388,10.4355435 54.265625,11.1152344 C53.656247,12.7168049 53.2265637,13.6933576 52.9765625,14.0449219 C52.7265613,14.3964861 52.296878,14.5722656 51.6875,14.5722656 C51.5390618,14.5722656 51.4248051,14.5664063 51.3447266,14.5546875 C51.264648,14.5429687 51.1660162,14.5214845 51.0488281,14.4902344 L51.0488281,13.5292969 C51.2324228,13.5800784 51.365234,13.6113281 51.4472656,13.6230469 C51.5292973,13.6347657 51.6015622,13.640625 51.6640625,13.640625 C51.859376,13.640625 52.0029292,13.6083988 52.0947266,13.5439453 C52.1865239,13.4794919 52.2636716,13.4003911 52.3261719,13.3066406 C52.3457032,13.2753905 52.416015,13.1152358 52.5371094,12.8261719 C52.6582037,12.5371079 52.7460935,12.3222663 52.8007812,12.1816406 L50.4804688,5.72460938 L51.6757812,5.72460938 L53.3574219,10.8339844 L55.0507812,5.72460938 Z M60.4941406,3.39257812 L61.5488281,3.39257812 L61.5488281,12 L60.4941406,12 L60.4941406,3.39257812 Z M67.0595703,10.5263672 C67.3193372,9.99706767 67.4492188,9.40820637 67.4492188,8.75976562 C67.4492188,8.1738252 67.3554697,7.69726746 67.1679688,7.33007812 C66.8710923,6.75195023 66.3593786,6.46289062 65.6328125,6.46289062 C64.988278,6.46289062 64.5195327,6.70898191 64.2265625,7.20117188 C63.9335923,7.69336184 63.7871094,8.2871059 63.7871094,8.98242188 C63.7871094,9.65039396 63.9335923,10.207029 64.2265625,10.6523438 C64.5195327,11.0976585 64.9843718,11.3203125 65.6210938,11.3203125 C66.320316,11.3203125 66.7998034,11.0556667 67.0595703,10.5263672 L67.0595703,10.5263672 Z M67.7128906,6.3515625 C68.2714872,6.8906277 68.5507812,7.68358852 68.5507812,8.73046875 C68.5507812,9.74219256 68.30469,10.5781217 67.8125,11.2382812 C67.32031,11.8984408 66.5566458,12.2285156 65.5214844,12.2285156 C64.6581988,12.2285156 63.9726588,11.9365264 63.4648438,11.3525391 C62.9570287,10.7685518 62.703125,9.98437992 62.703125,9 C62.703125,7.94530723 62.9707004,7.10547187 63.5058594,6.48046875 C64.0410183,5.85546563 64.7597611,5.54296875 65.6621094,5.54296875 C66.4707072,5.54296875 67.1542941,5.8124973 67.7128906,6.3515625 L67.7128906,6.3515625 Z M73.3085938,5.9765625 C73.5078135,6.11328193 73.7109365,6.31249869 73.9179688,6.57421875 L73.9179688,5.78320312 L74.890625,5.78320312 L74.890625,11.4902344 C74.890625,12.2871134 74.7734387,12.9160133 74.5390625,13.3769531 C74.1015603,14.2285199 73.2753967,14.6542969 72.0605469,14.6542969 C71.3847622,14.6542969 70.8164086,14.5029312 70.3554688,14.2001953 C69.8945289,13.8974594 69.636719,13.4238313 69.5820312,12.7792969 L70.6542969,12.7792969 C70.7050784,13.0605483 70.8066399,13.277343 70.9589844,13.4296875 C71.1972668,13.6640637 71.5722631,13.78125 72.0839844,13.78125 C72.8925822,13.78125 73.4218738,13.4960966 73.671875,12.9257812 C73.8203132,12.5898421 73.8886719,11.9902387 73.8769531,11.1269531 C73.6660146,11.4472672 73.4121109,11.6855461 73.1152344,11.8417969 C72.8183579,11.9980477 72.4257837,12.0761719 71.9375,12.0761719 C71.2578091,12.0761719 70.6630885,11.8349633 70.1533203,11.3525391 C69.6435521,10.8701148 69.3886719,10.0722712 69.3886719,8.95898438 C69.3886719,7.90819787 69.6455052,7.08789357 70.1591797,6.49804688 C70.6728541,5.90820018 71.2929651,5.61328125 72.0195312,5.61328125 C72.5117212,5.61328125 72.9414044,5.73437379 73.3085938,5.9765625 L73.3085938,5.9765625 Z M73.4375,7.10742188 C73.1171859,6.73242 72.7089869,6.54492188 72.2128906,6.54492188 C71.4706994,6.54492188 70.962892,6.89257465 70.6894531,7.58789062 C70.5449212,7.95898623 70.4726562,8.44530949 70.4726562,9.046875 C70.4726562,9.75390979 70.6162095,10.2919903 70.9033203,10.6611328 C71.1904311,11.0302753 71.5761695,11.2148438 72.0605469,11.2148438 C72.8183632,11.2148438 73.351561,10.8730503 73.6601562,10.1894531 C73.8320321,9.80273244 73.9179688,9.35156508 73.9179688,8.8359375 C73.9179688,8.05858986 73.7578141,7.48242375 73.4375,7.10742188 L73.4375,7.10742188 Z M80.4072266,10.5263672 C80.6669935,9.99706767 80.796875,9.40820637 80.796875,8.75976562 C80.796875,8.1738252 80.7031259,7.69726746 80.515625,7.33007812 C80.2187485,6.75195023 79.7070349,6.46289062 78.9804688,6.46289062 C78.3359343,6.46289062 77.867189,6.70898191 77.5742188,7.20117188 C77.2812485,7.69336184 77.1347656,8.2871059 77.1347656,8.98242188 C77.1347656,9.65039396 77.2812485,10.207029 77.5742188,10.6523438 C77.867189,11.0976585 78.3320281,11.3203125 78.96875,11.3203125 C79.6679722,11.3203125 80.1474596,11.0556667 80.4072266,10.5263672 L80.4072266,10.5263672 Z M81.0605469,6.3515625 C81.6191434,6.8906277 81.8984375,7.68358852 81.8984375,8.73046875 C81.8984375,9.74219256 81.6523462,10.5781217 81.1601562,11.2382812 C80.6679663,11.8984408 79.9043021,12.2285156 78.8691406,12.2285156 C78.0058551,12.2285156 77.320315,11.9365264 76.8125,11.3525391 C76.304685,10.7685518 76.0507812,9.98437992 76.0507812,9 C76.0507812,7.94530723 76.3183567,7.10547187 76.8535156,6.48046875 C77.3886746,5.85546563 78.1074174,5.54296875 79.0097656,5.54296875 C79.8183634,5.54296875 80.5019503,5.8124973 81.0605469,6.3515625 L81.0605469,6.3515625 Z M86.4863281,5.75390625 L87.5585938,5.75390625 L87.5585938,12 L86.4863281,12 L86.4863281,5.75390625 Z M86.4863281,3.39257812 L87.5585938,3.39257812 L87.5585938,4.58789062 L86.4863281,4.58789062 L86.4863281,3.39257812 Z M89.1523438,5.72460938 L90.1542969,5.72460938 L90.1542969,6.61523438 C90.4511734,6.24804504 90.7656233,5.9843758 91.0976562,5.82421875 C91.4296892,5.6640617 91.7988261,5.58398438 92.2050781,5.58398438 C93.0957076,5.58398438 93.6972641,5.89452814 94.0097656,6.515625 C94.1816415,6.85547045 94.2675781,7.34179371 94.2675781,7.97460938 L94.2675781,12 L93.1953125,12 L93.1953125,8.04492188 C93.1953125,7.66210746 93.1386724,7.3535168 93.0253906,7.11914062 C92.8378897,6.72851367 92.4980493,6.53320312 92.0058594,6.53320312 C91.7558581,6.53320312 91.5507821,6.5585935 91.390625,6.609375 C91.1015611,6.69531293 90.8476573,6.86718621 90.6289062,7.125 C90.4531241,7.33203229 90.3388675,7.54589733 90.2861328,7.76660156 C90.2333982,7.98730579 90.2070312,8.30273232 90.2070312,8.71289062 L90.2070312,12 L89.1523438,12 L89.1523438,5.72460938 Z M99.9716797,6.05859375 C100.415041,6.40234547 100.68164,6.99413643 100.771484,7.83398438 L99.7460938,7.83398438 C99.6835934,7.44726369 99.5410167,7.12597784 99.3183594,6.87011719 C99.095702,6.61425653 98.7382837,6.48632812 98.2460938,6.48632812 C97.5742154,6.48632812 97.0937514,6.81444984 96.8046875,7.47070312 C96.6171866,7.8964865 96.5234375,8.42187188 96.5234375,9.046875 C96.5234375,9.67578439 96.6562487,10.205076 96.921875,10.6347656 C97.1875013,11.0644553 97.6054659,11.2792969 98.1757812,11.2792969 C98.6132834,11.2792969 98.9599597,11.1455092 99.2158203,10.8779297 C99.471681,10.6103502 99.648437,10.2441429 99.7460938,9.77929688 L100.771484,9.77929688 C100.654296,10.6113323 100.36133,11.2197246 99.8925781,11.6044922 C99.4238258,11.9892597 98.8242224,12.1816406 98.09375,12.1816406 C97.2734334,12.1816406 96.6191431,11.8818389 96.1308594,11.2822266 C95.6425757,10.6826142 95.3984375,9.93359824 95.3984375,9.03515625 C95.3984375,7.93358824 95.6660129,7.07617494 96.2011719,6.46289062 C96.7363308,5.84960631 97.4179646,5.54296875 98.2460938,5.54296875 C98.9531285,5.54296875 99.5283181,5.71484203 99.9716797,6.05859375 L99.9716797,6.05859375 Z M102.078125,10.7226562 L103.302734,10.7226562 L103.302734,12 L102.078125,12 L102.078125,10.7226562 Z"></path>
	</symbol>
</svg>
